PathFileType	4	(X/Y/Z)	C:\Users\ebm\Documents\Erivelton\Erivelton2\wc7.trc
DataRate	CameraRate	NumFrames	NumMarkers	Units	OrigDataRate	OrigDataStartFrame	OrigNumFrames
150.00	150.00	      10	28	mm	150.00	704	      1125
Frame#	Time	IJ			PX			C7			T8			RAC			RAS			RPS			RAI			RPI			RLE			RME			RRS			RUS			R3M			R5M			LAC			LAS			LPS			LAI			LPI			LLE			LME			LRS			LUS			L3M			L5M			RW			LW			V_mid_elbow_r			V_mid_elbow_l			V_mid_wrist_r			V_mid_wrist_l			V_mid_trunk_low			V_mid_trunk_upp			
		X1	Y1	Z1	X2	Y2	Z2	X3	Y3	Z3	X4	Y4	Z4	X5	Y5	Z5	X6	Y6	Z6	X7	Y7	Z7	X8	Y8	Z8	X9	Y9	Z9	X10	Y10	Z10	X11	Y11	Z11	X12	Y12	Z12	X13	Y13	Z13	X14	Y14	Z14	X15	Y15	Z15	X16	Y16	Z16	X17	Y17	Z17	X18	Y18	Z18	X19	Y19	Z19	X20	Y20	Z20	X21	Y21	Z21	X22	Y22	Z22	X23	Y23	Z23	X24	Y24	Z24	X25	Y25	Z25	X26	Y26	Z26	X27	Y27	Z27	X28	Y28	Z28	

704	4.687	1553.35266	977.76428	22.97108	1501.44495	823.94611	37.70771	1472.13721	1120.47009	24.42447	1343.38013	1011.87146	38.41922	1528.93347	1034.25293	230.36833	1495.45032	853.60046	304.86789	1451.98108	874.87701	320.14838	1478.90662	782.36115	332.82751	1431.22644	801.85706	348.30511	1423.79651	735.10010	364.14529	1385.66626	717.29193	297.81323	1593.06543	518.21808	325.54443	1550.89832	515.35010	369.96136	1598.98669	432.44931	370.29004	1557.77612	435.50659	380.57938	1495.22119	1043.64246	-161.82745	1444.19043	906.55206	-261.10895	1397.88611	919.74036	-257.29178	1427.66956	836.01294	-298.86871	1374.87122	848.38251	-295.10147	1394.90491	759.76331	-335.25067	1337.80640	745.83606	-284.42090	1562.83008	564.00940	-262.26416	1520.37000	534.25873	-298.30780	1578.92810	470.24625	-296.10696	1535.65662	470.34232	-295.76892	1361.06348	297.21820	346.82870	1378.13245	300.56439	-282.44824	
705	4.693	1561.78955	978.72284	23.44083	1510.92285	824.52771	37.92823	1479.97412	1120.95264	25.04759	1351.79321	1011.75989	38.77601	1537.66223	1033.65466	230.75948	1510.56750	851.30328	303.53427	1466.56360	870.94812	319.56152	1496.88867	779.27911	331.09918	1448.77844	796.97455	347.41385	1443.49731	729.86700	362.32697	1405.64526	712.00085	296.08102	1610.56616	510.50989	325.84680	1568.38367	508.78366	370.35339	1614.01599	424.36072	370.63492	1573.17053	429.08023	381.38391	1504.46802	1043.39612	-161.44327	1456.85864	903.39886	-260.16940	1409.97498	915.59326	-256.38364	1442.29907	831.92676	-296.41727	1389.40112	843.02399	-293.24335	1411.64063	754.65601	-331.93848	1355.05664	740.07928	-281.11539	1580.87451	557.72272	-262.28992	1537.41663	528.81958	-297.88385	1594.25391	463.26932	-295.71524	1551.06555	464.78897	-295.35809	1371.11487	297.11987	347.15054	1388.13147	300.36151	-282.08447	
706	4.700	1569.99658	979.77173	24.13371	1520.40430	825.04407	38.31077	1487.81396	1121.43506	25.80272	1360.05090	1011.59601	39.00048	1546.34741	1032.86890	231.21535	1525.82971	848.98517	301.81390	1481.97083	866.78778	318.23465	1515.00769	776.27356	328.89719	1466.68091	792.20020	346.21436	1463.58167	724.85223	360.13205	1425.22620	707.02649	294.72723	1627.69739	502.35709	325.75293	1585.76001	502.10568	370.64136	1628.76379	416.42694	370.72507	1588.31653	422.67526	381.88617	1513.33606	1043.01038	-161.04080	1469.12268	900.29242	-258.57166	1422.05945	911.37408	-255.49803	1456.98450	827.73645	-293.77026	1403.94763	837.51343	-291.18344	1428.40552	749.47467	-328.27682	1372.51038	734.37286	-277.44968	1598.84399	551.54553	-262.04257	1554.41528	523.27722	-297.53275	1609.76135	456.18613	-295.56360	1566.47729	459.19806	-295.20511	1381.12683	297.06699	347.42877	1398.06274	300.34381	-281.76096	
707	4.707	1578.30322	980.86761	24.43616	1529.86731	825.61713	38.71324	1495.61255	1122.02344	26.57874	1368.24438	1011.42938	39.29922	1554.93811	1031.81128	231.67792	1541.20801	846.61267	299.84158	1497.03918	862.76959	317.03842	1533.30005	773.40533	326.50348	1484.76782	787.55646	344.79837	1483.94043	720.17444	357.71274	1444.88110	702.27570	293.13803	1644.43872	494.49042	326.16708	1602.84875	495.37305	370.65631	1643.18994	408.61432	371.03799	1603.13269	416.08289	383.04468	1522.17395	1042.59973	-160.70454	1481.25513	897.26416	-256.79938	1434.04028	906.98309	-254.48676	1473.00146	825.13159	-290.90112	1418.78467	832.08917	-288.66534	1445.34839	744.31775	-324.44312	1390.28943	728.73798	-273.36978	1616.58521	544.93689	-261.95084	1571.37073	517.81848	-297.24609	1624.73181	449.04837	-295.52588	1581.96326	453.59198	-295.01602	1391.01196	297.10599	347.76852	1408.10535	300.21924	-281.43039	
708	4.713	1586.37683	982.08350	25.02282	1539.68323	826.36737	39.08621	1503.33386	1122.57666	27.51188	1376.33728	1011.26007	39.57611	1563.63416	1030.50220	232.29956	1556.63391	844.17804	297.68988	1512.17883	858.71851	315.48843	1551.62769	770.58063	323.94342	1502.96106	783.08289	343.22461	1504.40247	715.79999	355.00259	1464.60242	697.73938	291.32373	1660.78760	486.36615	326.75424	1619.40234	488.75876	371.20367	1656.87402	400.99869	371.55487	1617.23926	410.12344	384.28485	1530.88513	1042.03369	-160.32045	1493.21790	894.23889	-254.83737	1445.97583	902.55280	-253.37648	1488.00220	821.38605	-287.67102	1433.42615	826.27563	-286.08667	1462.38135	739.21655	-320.49606	1407.84973	722.90479	-269.29477	1634.14026	538.23444	-261.79617	1588.17383	512.28900	-296.99826	1638.54932	440.61298	-295.45657	1597.98914	449.18277	-295.01898	1400.88867	297.10434	348.00977	1418.08313	300.11993	-281.16061	
709	4.720	1594.44080	983.31488	25.38749	1546.94373	826.71350	39.48706	1511.10229	1123.21997	28.71459	1384.52063	1011.06812	40.00276	1572.85803	1028.79382	232.98769	1572.00684	841.67328	295.09903	1527.45105	854.66168	313.61377	1570.04163	767.91595	321.18494	1521.22705	778.56702	341.13547	1524.98877	711.83289	351.92328	1483.39575	693.66687	289.49487	1676.98010	478.85754	327.40131	1635.54321	482.42969	371.82230	1669.93188	393.70154	372.20319	1630.97217	404.27625	385.43994	1539.34937	1041.34497	-159.95802	1506.40002	892.47131	-253.13445	1457.96106	898.00684	-251.88071	1502.92847	817.62598	-284.43356	1448.23926	820.74902	-283.29300	1479.52478	734.34985	-316.57498	1425.70593	717.33307	-264.90982	1651.44019	531.54651	-261.74185	1604.67419	506.58975	-296.81287	1653.10962	433.80533	-295.19485	1612.51892	443.19772	-294.88901	1410.75500	297.14246	348.19696	1428.03503	300.11456	-280.92926	
710	4.727	1602.61511	984.58899	25.82342	1556.42871	827.35907	39.76773	1518.99866	1123.88354	29.93171	1392.66541	1010.83075	40.66142	1582.75110	1026.94812	233.44388	1588.27600	839.41711	292.46478	1542.86218	850.81702	311.55127	1588.34399	765.39600	317.90695	1539.42859	774.27716	338.47192	1545.91931	707.97223	347.67078	1503.17761	689.72180	287.59814	1692.33936	471.33591	328.30496	1651.09729	476.49731	372.23676	1682.37280	387.00153	373.04672	1644.37329	398.12555	386.47675	1547.67163	1040.59155	-159.60849	1518.63379	889.38617	-251.19110	1470.03101	893.39667	-250.12444	1517.79980	814.03131	-281.11877	1463.11487	815.37292	-280.25604	1497.00879	729.75549	-312.52274	1444.03979	712.03162	-260.37241	1668.48633	524.43304	-261.75714	1620.67834	500.65027	-296.71686	1667.47607	426.66019	-295.49796	1626.66394	437.18872	-294.89908	1420.37769	297.15741	348.41940	1438.02783	300.08124	-280.72516	
711	4.733	1610.80359	985.67322	26.08126	1565.79333	827.93042	40.06673	1527.05029	1124.40332	31.07169	1400.88196	1010.54132	41.58548	1593.25269	1024.92297	233.70422	1603.73315	837.23309	289.48071	1558.43604	847.11829	309.21622	1606.39136	763.05676	314.20929	1557.40601	770.30615	335.37158	1566.12354	704.68408	343.57031	1522.70386	685.88953	284.42447	1707.34680	464.75681	329.67493	1665.90857	470.76385	372.89075	1694.18115	381.20996	374.00992	1657.27979	393.15012	387.84094	1555.83667	1039.80933	-159.17033	1531.04016	886.53363	-248.82286	1482.33618	888.89905	-247.88582	1532.71985	810.71136	-277.79691	1477.99597	810.23608	-276.96506	1514.87354	725.59277	-308.39127	1462.60107	707.03192	-256.02048	1685.16357	517.43475	-262.22519	1636.27051	494.70264	-296.71796	1681.43115	419.99600	-295.62811	1640.56616	431.27121	-294.98294	1430.08740	297.21744	348.59589	1448.01233	299.99731	-280.52444	
712	4.740	1619.50366	986.17767	26.14086	1575.29077	828.32965	40.30742	1535.66602	1124.78625	32.01680	1409.33215	1009.98376	42.81573	1603.87756	1023.12927	233.77899	1618.85925	835.36426	286.21014	1573.95557	843.86450	306.86075	1623.91284	760.87164	309.74884	1575.02173	766.71191	331.85602	1585.47290	701.87622	339.07001	1541.95544	682.30463	280.21271	1721.98145	458.73413	330.85751	1680.09180	465.85400	373.72421	1705.94080	376.31491	375.00052	1669.51062	388.34952	388.81912	1563.98230	1039.00842	-158.81351	1543.55554	883.49823	-246.34753	1494.90710	884.60730	-245.06779	1547.60767	807.63849	-274.34555	1492.91162	805.45935	-273.55911	1533.11414	722.08142	-304.11179	1481.24683	702.49750	-251.76085	1701.30115	510.58005	-262.39136	1651.38074	488.81436	-296.67358	1695.01440	413.44901	-296.09174	1654.06262	425.47287	-295.18588	1439.68494	297.27185	348.75330	1457.98303	299.90073	-280.32446	
713	4.747	1628.16736	986.82111	26.38143	1584.73047	828.45111	40.61028	1544.60657	1124.96338	32.76105	1417.82202	1009.22339	44.30443	1614.52759	1021.46667	233.90002	1633.60999	833.84222	282.82822	1589.33093	841.25964	304.92764	1640.61133	759.12854	305.07355	1592.01331	763.50983	328.11008	1603.43884	699.74103	334.41769	1560.24695	679.44562	274.87051	1736.25037	454.62323	332.30759	1693.62610	462.01706	374.57962	1717.57910	373.42383	377.22540	1681.54041	385.10663	389.72070	1572.45520	1038.03284	-158.54974	1556.35339	881.04602	-243.69600	1507.69971	880.64178	-242.21744	1562.54419	804.97668	-270.77002	1507.88489	801.23010	-269.85452	1551.73157	719.24219	-299.52301	1499.67407	698.58051	-247.63680	1716.81433	504.03705	-263.24881	1666.03125	483.27295	-296.62698	1707.92529	407.80334	-296.18405	1666.36084	419.46201	-295.99051	1449.45911	297.27435	348.83115	1467.82983	299.78589	-280.20953	
